PathFileType	4	(X/Y/Z)	C:\Users\WrightLab\Desktop\Jo\P1.2Trial33.trc
DataRate	CameraRate	NumFrames	NumMarkers	Units	OrigDataRate	OrigDataStartFrame	OrigNumFrames
100.00	100.00	       19	19	mm	100.00	479	       766
Frame#	Time	Headset_Front			Headset_Back			Headset_Left			Headset_Right			Left_Shoulder			Right_Shoulder			Sternum			C7			Left Elbow			Right Elbow			Left Wrist			Right Wrist			Left ASIS			Right ASIS			S2			Left Knee			Right Knee			Left Ankle			Right Ankle			
		X1	Y1	Z1	X2	Y2	Z2	X3	Y3	Z3	X4	Y4	Z4	X5	Y5	Z5	X6	Y6	Z6	X7	Y7	Z7	X8	Y8	Z8	X9	Y9	Z9	X10	Y10	Z10	X11	Y11	Z11	X12	Y12	Z12	X13	Y13	Z13	X14	Y14	Z14	X15	Y15	Z15	X16	Y16	Z16	X17	Y17	Z17	X18	Y18	Z18	X19	Y19	Z19	

479	4.780	-479.44180	1281.12805	-404.17911	-526.01208	1483.86670	-178.87897	-619.03394	1390.04419	-288.28314	-392.38519	1349.49768	-302.76297	-747.84729	1222.70178	-201.01088	-325.75201	1200.24377	-133.76057	-523.42639	1119.59814	-264.89124	-546.90076	1291.11816	-64.76299	-865.11951	957.56427	-154.88454	-254.93164	969.04480	-23.34067	-980.08563	803.56519	-280.22855	-170.78780	712.28467	-55.88608	-680.87872	823.30884	-230.02650	-403.59628	794.49878	-169.42303	-609.83362	907.00732	59.96607	-744.83075	435.76544	-259.93604	-383.10892	389.34671	-57.68398	-836.08185	112.34110	-271.89117	-376.83640	71.96149	157.07185	
480	4.790	-485.14066	1282.30945	-410.07819	-532.34003	1484.99829	-183.16476	-624.88568	1390.58008	-294.17648	-398.25009	1349.55359	-307.76068	-754.86365	1221.29651	-206.22552	-332.54535	1199.28479	-138.05115	-529.78870	1119.48071	-271.84207	-553.99329	1289.63525	-70.94665	-871.47144	957.56525	-157.60789	-260.84567	969.28339	-29.75694	-989.75232	802.16083	-278.81198	-174.71736	711.93567	-62.99559	-685.54993	822.07373	-238.26016	-408.99158	794.87592	-178.02843	-616.82782	904.71576	51.59898	-747.70203	432.39423	-266.42285	-388.89175	388.18057	-64.33129	-839.15845	110.63948	-277.65411	-357.26096	88.18085	139.05415	
481	4.800	-491.38013	1284.07947	-416.80695	-538.56482	1485.44617	-188.43881	-630.88855	1392.24170	-300.78421	-404.26782	1349.88855	-312.79523	-761.46198	1220.23303	-211.88307	-339.10715	1198.59326	-144.20830	-536.39441	1119.33618	-278.98444	-560.74915	1288.19934	-77.00048	-876.77002	956.01770	-159.54617	-267.04407	967.59857	-35.87253	-998.26709	799.92920	-277.92984	-179.17963	711.98590	-71.04108	-690.19495	820.47778	-246.43730	-414.55978	794.54413	-184.54297	-623.61914	901.56647	40.06505	-751.61328	430.61292	-274.41656	-393.84378	388.45615	-69.96516	-841.82159	107.85016	-282.79172	-357.28561	90.70863	138.36340	
482	4.810	-496.93640	1285.70471	-423.04517	-544.78619	1486.15576	-193.79784	-636.77118	1393.27747	-306.38101	-410.73685	1350.42102	-318.15512	-768.58496	1219.25598	-217.46736	-345.42041	1197.76672	-149.92607	-542.01501	1120.63818	-287.97681	-568.11664	1287.90002	-83.63946	-882.89642	954.58191	-162.28424	-273.27505	967.51733	-42.48097	-1006.54382	797.80280	-277.13824	-184.33684	712.09564	-79.34783	-695.53802	819.33917	-255.04448	-420.24423	794.18567	-191.81865	-630.87903	901.20526	33.96608	-755.88458	428.73618	-281.75247	-398.22769	387.31369	-74.64515	-843.63885	104.77261	-288.29175	-358.24240	93.49551	135.86629	
483	4.820	-502.27808	1287.45190	-428.82120	-551.09094	1486.14124	-198.91791	-642.74078	1394.78711	-312.53134	-416.48236	1351.40039	-323.52631	-775.71564	1218.44983	-224.16257	-352.09204	1198.38586	-155.18964	-549.66949	1119.79065	-293.23822	-574.97528	1287.43274	-89.91762	-888.16180	953.54700	-164.91525	-280.40295	966.79675	-49.95835	-1014.82355	795.38177	-276.07767	-189.95132	712.00385	-86.53313	-700.68854	818.54858	-264.41040	-426.27664	794.60132	-199.41565	-638.51044	900.68439	25.36775	-760.16882	428.76083	-290.53989	-402.82306	387.48328	-81.22386	-844.69397	101.84532	-293.46179	-357.12067	97.39289	132.40404	
484	4.830	-507.82294	1289.56006	-435.11649	-558.28290	1487.03833	-204.46297	-648.67926	1396.37207	-319.93399	-422.27255	1352.91174	-329.34613	-782.92047	1218.48254	-230.28995	-358.61603	1198.62964	-161.97215	-556.41687	1120.29602	-300.96194	-580.77112	1287.48425	-96.22710	-893.49188	952.63989	-167.17372	-287.32043	967.29376	-56.56979	-1021.82928	792.51367	-275.25632	-194.34711	712.59912	-94.62088	-706.39886	818.76306	-273.74451	-432.53256	795.11816	-206.66603	-645.88324	899.64270	17.38344	-764.44543	428.97653	-297.42947	-406.25180	388.06976	-87.84334	-845.99298	98.87814	-297.99393	-356.54605	100.97757	128.80869	
485	4.840	-513.28601	1291.88770	-441.93567	-564.02148	1485.70740	-210.51643	-655.06610	1398.21838	-326.62112	-428.17953	1353.56995	-334.18005	-789.57526	1218.21606	-236.64552	-364.76303	1198.88647	-163.38327	-562.28076	1122.98145	-311.14572	-588.44196	1287.22852	-104.11458	-899.46710	952.35950	-170.26311	-294.90213	967.24054	-63.57141	-1027.85205	789.31561	-274.81461	-201.40292	713.06885	-102.99301	-712.19891	818.68097	-281.73624	-439.07233	796.15802	-214.64995	-652.84680	900.48242	9.22265	-768.39838	430.21335	-305.18198	-410.87677	388.53207	-94.30981	-847.07227	96.82445	-302.95392	-357.13879	105.18936	124.75970	
486	4.850	-518.85278	1294.24780	-449.10541	-571.00726	1486.40149	-215.88208	-661.02448	1399.38660	-333.59781	-434.34656	1355.58350	-340.19461	-796.33539	1218.24377	-243.11218	-371.51163	1200.57776	-173.84134	-569.16870	1123.57129	-317.90820	-595.14270	1288.04114	-111.27699	-905.59387	952.92426	-173.08307	-302.08475	967.85657	-69.40882	-1033.69446	786.89294	-273.44751	-206.80266	714.92755	-110.59292	-718.15289	819.60785	-290.44138				-659.42523	901.25018	4.99108	-772.47119	431.14874	-313.71909	-414.71060	388.08789	-100.92435	-848.04333	95.05647	-306.44446	-357.88162	109.39151	121.32206	
487	4.860	-524.47034	1296.50220	-455.55322	-578.47479	1486.57336	-221.12596	-667.36108	1400.81519	-339.71429	-440.49814	1356.30566	-345.19589	-802.92297	1218.28992	-249.27965	-377.86871	1201.07947	-179.29614	-576.56012	1123.22766	-323.62897	-600.91974	1289.02844	-118.11952	-910.82007	953.18884	-176.62016	-309.60358	968.48108	-77.31728	-1037.49854	782.99579	-271.79385	-213.86215	715.77521	-118.49945	-725.06451	821.09991	-298.99097	-469.03647	790.76978	-220.95036	-666.23682	901.34076	-3.32907	-776.61334	433.32889	-321.78183	-419.49161	389.62549	-107.83050	-848.99371	93.47305	-309.26797	-358.67114	114.28246	116.17979	
488	4.870	-529.19885	1298.59082	-462.42377	-584.54346	1487.54578	-226.69675	-673.71741	1402.70313	-347.58447	-446.41281	1357.68347	-351.37689	-809.38104	1218.73779	-256.18564	-384.43765	1202.37598	-190.38225	-583.30103	1124.48572	-331.13889	-607.46722	1288.72253	-125.36784	-915.70752	954.05786	-179.90114	-318.71649	968.99792	-85.03452	-1041.57739	780.23370	-270.99243	-220.55731	716.96973	-125.92196	-731.71521	822.26312	-306.38504	-476.51630	792.77893	-229.25206	-671.41040	902.56152	-10.62866	-780.24646	434.79175	-328.47787	-423.82022	390.64621	-114.77110	-850.33148	92.48917	-312.76587	-360.30640	119.10714	111.60551	
489	4.880	-534.59674	1300.74768	-468.90186	-591.15204	1487.68127	-232.75439	-679.07532	1403.86523	-354.04724	-452.44073	1359.59119	-356.86868	-816.00555	1219.07520	-262.00021	-391.08115	1204.41187	-202.60841	-590.25836	1125.15930	-337.58603	-613.95020	1289.91113	-132.24738	-920.55273	954.84216	-183.06073	-326.10352	969.86572	-92.65262	-1044.36963	777.57819	-269.21698	-228.39543	718.12317	-134.21323	-738.96234	823.35712	-314.57437	-484.04617	793.88129	-235.24588	-677.26807	903.40717	-18.88767	-784.64215	435.83566	-335.74295	-428.55948	391.40027	-122.74290	-851.81177	92.10679	-317.36145	-362.09616	123.29764	106.36410	
490	4.890	-539.56116	1302.52527	-475.37582	-597.41113	1488.55261	-238.77980	-685.06097	1405.39832	-361.18127	-458.60886	1360.92029	-362.79974	-822.28717	1219.42139	-267.22189	-397.06210	1205.56372	-206.71829	-596.81873	1126.81128	-344.90500	-620.30768	1290.68445	-138.63397	-925.54938	955.40973	-186.69116	-334.02856	971.10168	-99.76943	-1046.75488	774.54309	-268.18073	-236.70959	719.00488	-140.75076	-745.56036	824.40936	-321.22192	-490.91565	795.86761	-243.55832	-682.20990	903.31329	-28.43848	-788.87732	436.68958	-342.49594	-433.43408	393.53671	-131.31084	-853.07336	90.68553	-319.81693	-364.47913	127.16198	99.03037	
491	4.900	-545.09875	1304.54883	-482.05905	-603.43469	1490.07263	-245.13989	-690.82513	1406.93042	-367.58508	-464.39520	1362.77686	-369.06619	-828.48102	1220.66089	-273.58710	-404.21503	1206.48926	-214.35060	-604.26971	1128.39844	-352.49756	-626.40454	1291.48279	-145.14250	-929.09766	955.50171	-190.02733	-342.68973	972.09662	-106.35826	-1048.19165	771.70135	-267.41943	-244.80156	719.02863	-147.65955	-752.91833	825.99042	-329.36200	-498.38470	797.16931	-251.28166	-686.96729	904.20844	-36.09193	-793.34119	437.58713	-349.07129	-438.61569	395.18549	-139.50174	-854.08582	89.10351	-321.31781	-367.30508	131.22694	91.87169	
492	4.910	-550.71350	1306.65784	-489.12317	-610.09711	1491.21924	-250.81822	-696.79071	1408.45874	-375.10336	-470.07059	1363.68188	-374.95563	-834.43579	1221.19373	-278.87576	-409.45483	1207.97327	-219.06010	-610.71234	1130.25903	-359.56854	-630.83704	1292.69263	-151.63118	-932.27875	956.22162	-194.08760	-350.60385	973.08667	-114.28386	-1049.22327	768.43585	-265.68869	-254.51447	718.93817	-156.15442	-759.56427	827.01709	-336.73862	-506.61050	798.48883	-258.27087	-691.88464	905.03735	-42.87868	-797.66217	437.03052	-352.61163	-443.70901	397.20706	-148.20470	-854.79688	87.41936	-322.06686	-371.82724	134.48038	84.58981	
493	4.920	-555.96844	1308.17188	-494.66840	-615.93567	1492.48279	-257.21970	-702.53381	1409.66650	-380.60703	-475.97513	1365.61523	-381.20026	-840.80939	1221.93726	-284.38947	-416.33441	1209.07239	-230.24620	-617.26422	1131.71899	-366.10745	-636.26593	1293.24841	-157.95732	-936.34625	956.37946	-198.21413	-357.51697	974.32544	-122.18217	-1049.41174	765.56140	-264.41937	-264.02533	719.17157	-163.51810	-766.40863	828.53992	-344.91287	-512.84186	800.37036	-267.08707	-695.88190	906.37811	-48.49506	-801.86517	436.55917	-357.02448	-448.64279	398.58627	-156.79721	-855.12885	85.32993	-321.77853	-376.79672	137.36435	75.89362	
494	4.930	-560.70941	1309.51636	-500.95343	-622.76379	1493.93945	-264.28165	-708.26038	1410.98022	-387.72504	-481.01688	1367.38489	-387.60773	-846.96802	1222.30652	-289.34787	-421.44171	1210.91980	-239.44339	-624.01868	1133.47302	-373.58463	-642.28271	1294.81409	-164.29967	-938.57306	955.96503	-202.32018	-364.90948	975.83173	-129.69104	-1049.05383	763.06885	-263.02173	-273.30957	720.39685	-170.49379	-772.78424	829.72260	-352.44202	-520.66516	801.90167	-273.18823	-700.50934	907.86523	-54.44378	-805.77911	435.55417	-360.80170	-453.89755	399.54279	-165.14726	-855.10132	83.69155	-322.07037	-380.79089	139.15800	67.94899	
495	4.940	-565.82330	1311.32581	-507.17621	-629.31439	1495.75183	-270.43661	-713.35455	1412.48401	-394.45679	-486.53842	1368.71741	-392.63504	-852.48975	1223.07959	-295.43677	-426.26227	1212.92944	-244.04175	-630.16516	1135.23938	-379.99951	-647.56805	1295.93701	-170.62221	-940.50043	955.63898	-206.11716	-370.87161	977.22736	-138.07541	-1048.37451	760.44104	-261.59070	-283.53363	720.37170	-178.08519	-779.52704	830.98865	-360.33862	-525.09204	803.93878	-281.16360	-704.83569	909.18915	-58.73675	-809.30896	434.91943	-363.56738	-458.51462	401.84113	-176.34598	-855.08331	82.64805	-322.89474	-385.93973	141.50504	59.65092	
496	4.950	-570.60779	1312.59888	-513.52643	-634.99359	1497.27979	-276.48550	-718.87372	1413.57776	-400.77713	-491.91089	1370.50244	-398.80765	-858.08374	1223.68164	-300.62332	-432.35431	1214.43066	-252.44254	-635.95160	1136.19580	-386.07230	-652.59277	1297.35303	-176.84705	-942.37299	954.84436	-210.33545	-376.72736	977.83887	-146.98384	-1047.00330	758.29724	-260.51788	-293.36670	720.13037	-185.37650	-785.74420	831.67078	-367.60590	-531.17938	805.47290	-287.94513	-709.54980	909.44763	-67.37841	-812.62787	434.57816	-366.03302	-462.61548	402.72763	-186.76750	-855.32977	80.38908	-321.24078	-393.41809	145.02693	50.07071	
497	4.960	-575.69513	1313.94836	-519.26111	-641.07635	1498.54175	-282.35577	-724.60577	1414.59460	-407.18961	-497.49402	1371.84912	-404.63452	-863.42578	1223.93103	-305.50952	-437.48318	1216.16968	-259.61551	-641.70905	1137.89600	-392.43060	-657.90820	1298.94983	-183.13286	-942.99017	954.10724	-213.59039	-382.72327	979.36725	-154.65895	-1045.55896	756.17572	-259.84210	-303.72131	720.53314	-194.24129	-791.99542	832.75049	-374.12314	-535.61237	807.28101	-294.66953	-713.30078	911.94244	-73.51810	-815.84515	434.23911	-368.28683	-467.12582	402.74387	-198.00386	-855.78033	78.03158	-319.06201	-400.29855	148.73296	42.47993	
